<?xml version="1.0" encoding="utf-8"?>
<!-- Generator: Adobe Illustrator 15.1.0, SVG Export Plug-In . SVG Version: 6.00 Build 0)  -->
<!DOCTYPE svg PUBLIC "-//W3C//DTD SVG 1.1//EN" "http://www.w3.org/Graphics/SVG/1.1/DTD/svg11.dtd">
<svg version="1.1" id="Layer_1" xmlns="http://www.w3.org/2000/svg" xmlns:xlink="http://www.w3.org/1999/xlink" x="0px" y="0px"
	 width="66.75px" height="43.917px" viewBox="0 0 66.75 43.917" enable-background="new 0 0 66.75 43.917" xml:space="preserve">
<path fill="#020202" d="M39.878,14.016l0.009-0.015L34.44,6.277h-7.481l2.338,3.218c-0.022,0.002,0.022-0.002,0,0l5.6,7.927
	c0.576,0.811,0.912,1.79,0.912,2.844c0,2.808-2.392,5.084-5.345,5.084c-2.951,0-5.347-2.276-5.347-5.084v-9.592V0.544h-6.08v20.614
	l0,0c0.455,5.629,5.438,10.064,11.473,10.064c6.336,0,11.471-4.885,11.471-10.914C41.98,17.964,41.202,15.794,39.878,14.016z"/>
<path fill="#020202" d="M59.29,23.5c-0.952,1.015-2.615,1.845-4.137,1.845c-2.882,0-5.22-2.279-5.22-5.089
	c0-1.055,0.33-2.035,0.891-2.847l5.271-7.952c0,0,0.021,0.003,0,0l2.142-3.146l-6.732-0.024l-5.555,7.699l0.007,0.012
	c-1.291,1.78-2.053,3.953-2.053,6.301c0,6.031,5.017,10.923,11.205,10.923c4.972,0,9.344-3.352,10.808-7.723H59.29z"/>
<path fill="#020202" d="M17.02,0.544v5.998c0,0-1.932,0.05-2.126,4.196v12.845c0,0,0.182,7.129-4.534,13.46
	c0,0-3.732,5.668-9.783,5.99v-5.99c0,0,3.533,0.26,6.396-5.551c0,0,1.556-2.912,1.955-8.149v-5.234H4.542V12.13h4.39
	c0,0-0.286-3.515,0.986-6.354C9.918,5.775,11.712,0.839,17.02,0.544z"/>
<radialGradient id="SVGID_1_" cx="-171.6255" cy="-980.3364" r="4.1254" gradientTransform="matrix(0.0349 0.9994 -1.2108 0.0423 -1139.7136 245.7913)" gradientUnits="userSpaceOnUse">
	<stop  offset="0.2788" style="stop-color:#00E6FF"/>
	<stop  offset="0.43" style="stop-color:#06E0FF"/>
	<stop  offset="0.6305" style="stop-color:#16CFFF"/>
	<stop  offset="0.8577" style="stop-color:#31B4FF"/>
	<stop  offset="1" style="stop-color:#459FFF"/>
</radialGradient>
<path fill="url(#SVGID_1_)" d="M46.985,31.219c-0.031-0.031-0.071-0.046-0.11-0.045l0,0h-8.192l0.002,0.001l0,0
	c-0.042-0.001-0.084,0.014-0.116,0.045c-0.011,0.01-0.018,0.022-0.024,0.033l4.232,3.233l4.233-3.235
	C47.002,31.24,46.995,31.229,46.985,31.219z"/>
<linearGradient id="SVGID_2_" gradientUnits="userSpaceOnUse" x1="1146.106" y1="1609.0605" x2="1147.4644" y2="1611.9098" gradientTransform="matrix(0.7071 -0.7071 0.7071 0.7071 -1906.1787 -292.2568)">
	<stop  offset="0.2788" style="stop-color:#007AFF"/>
	<stop  offset="0.8682" style="stop-color:#3226FF"/>
	<stop  offset="1" style="stop-color:#4505FF"/>
</linearGradient>
<path fill="url(#SVGID_2_)" d="M42.775,34.486l0.026,6.52c0.04,0,0.08-0.015,0.109-0.045c0.014-0.014,0.027-0.03,0.034-0.048l0,0
	l4.074-9.523l0,0c0.02-0.044,0.016-0.095-0.009-0.138L42.775,34.486z"/>
<linearGradient id="SVGID_3_" gradientUnits="userSpaceOnUse" x1="1147.7183" y1="1608.3643" x2="1140.9587" y2="1609.3676" gradientTransform="matrix(0.7071 -0.7071 0.7071 0.7071 -1906.1787 -292.2568)">
	<stop  offset="0.2788" style="stop-color:#00ADFF"/>
	<stop  offset="1" style="stop-color:#457AFF"/>
</linearGradient>
<path fill="url(#SVGID_3_)" d="M42.69,40.959c0.031,0.031,0.071,0.046,0.111,0.046l-0.026-6.52l-4.232-3.232
	c-0.026,0.046-0.031,0.088-0.004,0.15l4.118,9.505C42.665,40.927,42.676,40.945,42.69,40.959z"/>
<polygon opacity="0.49" fill="#00F9FF" enable-background="new    " points="38.666,31.346 42.775,34.486 47.009,31.251 
	42.779,34.123 "/>
</svg>
