<svg xmlns="http://www.w3.org/2000/svg" width="512" height="512" viewBox="0 0 512 512"><path fill="#008cdb" d="M84 167.9c0-32.2 26.1-58.3 58.3-58.3 32.2 0 58.3 26.1 58.3 58.3 0 32.2-26.1 58.3-58.3 58.3-32.2 0-58.3-26.1-58.3-58.3zM316.7 153.8c0-32.2 26.1-58.3 58.3-58.3 32.2 0 58.3 26.1 58.3 58.3 0 32.2-26.1 58.3-58.3 58.3-32.2 0-58.3-26.1-58.3-58.3zM148.1 345v-13.9c0-.5 0-1 .1-1.5 1.1-17.3 15.3-30.7 32.7-30.7H217c-20.1-12.3-33.5-34.3-33.5-59.5v-.4H69.9c-11.5 0-20.9 9.2-21.2 20.6v64.2c0 11.7 9.5 21.3 21.3 21.3h18.5v-39.8h7.4V345h52.2zM468.6 245.5c-.4-11.4-9.7-20.6-21.2-20.6H321.6c1 4.7 1.5 9.5 1.5 14.5 0 25.2-13.5 47.3-33.5 59.5h31.6v-7.8h7.4v8.1c16.1 1.4 28.8 14.1 29.8 30.4.1.4.1.8.1 1.3h63v-39.8h7.3v39.8h18.7c11.7 0 21.3-9.5 21.3-21.3l-.2-64.1z"/><path fill="#008cdb" d="M195 239.4c0-32.2 26.1-58.3 58.3-58.3 32.2 0 58.3 26.1 58.3 58.3 0 32.2-26.1 58.3-58.3 58.3-32.2 0-58.3-26.1-58.3-58.3zM346.9 331.1c-.4-11.4-9.7-20.6-21.2-20.6H180.9c-11.5 0-20.9 9.2-21.2 20.6v64.2c0 11.7 9.5 21.3 21.3 21.3h18.5v-39.8h7.4v39.8h92.8v-39.8h7.3v39.8h18.7c11.7 0 21.3-9.5 21.3-21.3l-.1-64.2z"/></svg>